# xmcd
#
# Track frame offsets:
#	150
#	22196
#	55081
#	79589
#	109948
#	148204
#	167012
#	186840
#
# Disc length: 2809 seconds
#
# Revision: 1
# Processed by: cddbd v1.5.2PL0 Copyright (c) Steve Scherf et al.
# Submitted via: EasyCDDAExtractor 9.0.0.1
#
DISCID=6b0af708
DTITLE=Dio - Ogden Theater Denver 25-11-00 Disc 2 Master
DYEAR=2000
DGENRE=Hard Rock
TTITLE0=Holy Diver
TTITLE1=Heaven and Hell
TTITLE2=Rainbow In The Dark
TTITLE3=The Last In Line
TTITLE4=Man On The Silver Mountain - Long Live Rock and Roll
TTITLE5=The Mob Rules
TTITLE6=Gypsy
TTITLE7=We Rock
EXTD=
EXTT0=
EXTT1=
EXTT2=
EXTT3=
EXTT4=
EXTT5=
EXTT6=
EXTT7=
PLAYORDER=
